<?xml version="1.0" encoding="UTF-8" standalone="no"?>
<svg
   xmlns:dc="http://purl.org/dc/elements/1.1/"
   xmlns:cc="http://creativecommons.org/ns#"
   xmlns:rdf="http://www.w3.org/1999/02/22-rdf-syntax-ns#"
   xmlns:svg="http://www.w3.org/2000/svg"
   xmlns="http://www.w3.org/2000/svg"
   xml:space="preserve"
   enable-background="new 0 0 612 792"
   viewBox="0 0 612 612"
   height="612"
   width="612"
   y="0px"
   x="0px"
   id="emoji"
   version="1.1"><metadata
   id="metadata11"><rdf:RDF><cc:Work
       rdf:about=""><dc:format>image/svg+xml</dc:format><dc:type
         rdf:resource="http://purl.org/dc/dcmitype/StillImage" /><dc:title></dc:title></cc:Work></rdf:RDF></metadata><defs
   id="defs9" />
<path
   style="fill:#ffcc4d"
   d="M 612,306 C 612,474.997 474.997,612 306,612 137.02,612 0,474.997 0,306 0,137.02 137.02,0 306,0 474.997,0 612,137.02 612,306"
   id="face_bg" />
<path
   style="fill:#664500"
   d="m 352.807,476 c 22.695,-7.004 44.693,-19.652 44.693,-42.5 0,-44.523 -83.504,-50.456 -93.024,-50.983 -4.658,-0.441 -8.652,3.281 -8.958,7.956 -0.289,4.658 3.23,8.688 7.888,9.011 0.594,0.033 60.094,5.082 60.094,34.016 0,28.934 -59.5,33.983 -60.095,34.017 -0.238,0.018 -0.408,0.153 -0.629,0.188 -0.884,0.102 -1.717,0.306 -2.482,0.68 l -0.323,0.188 c -0.799,0.441 -1.496,0.969 -2.108,1.666 -0.238,0.255 -0.408,0.526 -0.612,0.815 -0.391,0.544 -0.748,1.071 -1.02,1.734 -0.204,0.493 -0.306,1.037 -0.408,1.563 -0.068,0.392 -0.272,0.748 -0.306,1.14 0,0.187 0.068,0.356 0.068,0.526 0,0.17 -0.085,0.357 -0.068,0.527 0.017,0.408 0.221,0.765 0.306,1.156 0.102,0.526 0.187,1.037 0.391,1.53 0.221,0.51 0.527,0.969 0.833,1.428 0.289,0.408 0.544,0.85 0.884,1.207 0.391,0.391 0.85,0.696 1.326,1.037 0.408,0.289 0.782,0.578 1.258,0.799 0.544,0.255 1.122,0.356 1.717,0.459 0.408,0.102 0.748,0.306 1.173,0.34 0.595,0.017 60.095,5.066 60.095,34 0,28.934 -59.5,33.983 -60.095,34.017 -4.658,0.341 -8.177,4.369 -7.888,9.011 0.289,4.505 4.029,7.973 8.483,7.973 l 0.476,-0.017 c 9.521,-0.527 93.024,-6.46 93.024,-50.983 0,-22.849 -21.998,-35.497 -44.693,-42.501 z"
   id="nouth" />
<path
   style="fill:#664500"
   d="M 267.019,293.981 C 211.684,238.646 122.757,238 119,238 c -9.384,0 -16.983,7.599 -16.983,16.966 -0.017,9.384 7.582,17 16.966,17.034 0.493,0 32.725,0.374 67.711,12.529 C 176.613,295.409 170,312.307 170,331.5 c 0,32.878 19.023,59.5 42.5,59.5 23.477,0 42.5,-26.622 42.5,-59.5 0,-2.958 -0.323,-5.78 -0.629,-8.619 0.221,0 0.425,0.119 0.629,0.119 4.352,0 8.704,-1.666 12.019,-4.981 6.647,-6.647 6.647,-17.391 0,-24.038 z M 493,238 c -3.757,0 -92.667,0.646 -148.019,55.981 -6.647,6.647 -6.647,17.391 0,24.038 3.315,3.315 7.667,4.981 12.019,4.981 0.221,0 0.408,-0.119 0.612,-0.119 -0.272,2.839 -0.612,5.661 -0.612,8.619 0,32.878 19.023,59.5 42.5,59.5 23.477,0 42.5,-26.622 42.5,-59.5 0,-19.193 -6.613,-36.091 -16.694,-46.971 C 460.292,272.374 492.524,272 493.034,272 502.401,271.966 510,264.35 509.983,254.966 509.966,245.599 502.384,238 493,238 Z"
   id="eyes" />
<path
   style="fill:#e75a70"
   d="m 599.868,462.774 c 12.563,-25.772 1.87,-56.899 -23.885,-69.463 -15.675,-7.633 -33.253,-6.646 -47.481,1.021 -2.72,-15.912 -12.75,-30.413 -28.39,-38.029 -25.789,-12.58 -56.916,-1.853 -69.479,23.902 -1.785,3.655 -3.06,7.429 -3.91,11.203 -13.157,43.452 10.881,107.797 37.265,135.116 37.791,3.978 103.309,-16.644 129.455,-53.737 2.464,-3.043 4.64,-6.358 6.425,-10.013 z"
   id="heart" />
</svg>