<?xml version="1.0" encoding="UTF-8" standalone="no"?>
<svg
   xmlns:dc="http://purl.org/dc/elements/1.1/"
   xmlns:cc="http://creativecommons.org/ns#"
   xmlns:rdf="http://www.w3.org/1999/02/22-rdf-syntax-ns#"
   xmlns:svg="http://www.w3.org/2000/svg"
   xmlns="http://www.w3.org/2000/svg"
   xmlns:xlink="http://www.w3.org/1999/xlink"
   version="1.1"
   id="Emoji"
   x="0px"
   y="0px"
   width="130.9201"
   height="130.9201"
   viewBox="0 0 130.9201 130.9201"
   enable-background="new 0 0 36 36"
   xml:space="preserve"><metadata
   id="metadata123"><rdf:RDF><cc:Work
       rdf:about=""><dc:format>image/svg+xml</dc:format><dc:type
         rdf:resource="http://purl.org/dc/dcmitype/StillImage" /><dc:title></dc:title></cc:Work></rdf:RDF></metadata><defs
   id="defs121" />
<g
   transform="scale(3.6366694)"
   id="g116">
	<defs
   id="defs93"><rect
     id="SVGID_1_"
     width="36"
     height="36"
     x="0"
     y="0" /></defs>
	<clipPath
   id="SVGID_2_">
		<use
   xlink:href="#SVGID_1_"
   overflow="visible"
   id="use95"
   style="overflow:visible"
   x="0"
   y="0"
   width="100%"
   height="100%" />
	</clipPath>
	<path
   clip-path="url(#SVGID_2_)"
   d="M 36,18 C 36,27.941 27.941,36 18,36 8.06,36 0,27.941 0,18 0,8.06 8.06,0 18,0 27.941,0 36,8.06 36,18"
   id="path98"
   style="display:inline;fill:#ffcc4d" />
	<g
   clip-path="url(#SVGID_2_)"
   id="g104"><path
   d="m 33.092,23.716 c 0,2.605 -2.111,4.717 -4.717,4.717 -2.604,0 -4.716,-2.111 -4.716,-4.717 0,-2.604 2.111,-4.716 4.716,-4.716 2.605,0 4.717,2.111 4.717,4.716"
   id="path102"
   style="fill:#ff7892" />
		<path
   d="m 12.34,23.716 c 0,2.605 -2.111,4.717 -4.716,4.717 -2.605,0 -4.716,-2.111 -4.716,-4.717 C 2.908,21.111 5.02,19 7.625,19 c 2.605,0 4.715,2.111 4.715,4.716"
   id="path100"
   style="fill:#ff7892" />
		
	</g>
	
	
	<path
   clip-path="url(#SVGID_2_)"
   d="M 30.6,20.2 C 30.486,20.114 28.669,18.774 25.954,17.856 25.98,17.741 26,17.623 26,17.5 26,17.131 25.861,16.797 25.641,16.536 27.443,16.016 28.975,16 29.002,16 29.553,15.998 30,15.551 29.999,14.998 29.998,14.447 29.552,14 29,14 c -0.221,0 -5.451,0.037 -8.707,3.293 -0.286,0.286 -0.372,0.716 -0.217,1.09 C 20.23,18.757 20.596,19 21,19 c 4.59,0 8.363,2.772 8.401,2.801 0.18,0.134 0.39,0.198 0.598,0.198 0.305,0 0.605,-0.139 0.802,-0.4 0.33,-0.443 0.24,-1.068 -0.201,-1.399"
   id="path110"
   style="fill:#664500" /><path
   clip-path="url(#SVGID_2_)"
   d="M 15.707,17.293 C 12.452,14.038 7.221,14 7,14 6.448,14 6.001,14.447 6.001,14.999 6,15.55 6.447,15.999 6.999,16 c 0.026,0 1.558,0.016 3.36,0.536 C 10.139,16.797 10,17.131 10,17.5 c 0,0.123 0.019,0.241 0.047,0.355 C 7.331,18.774 5.514,20.114 5.4,20.2 4.958,20.531 4.869,21.158 5.2,21.599 5.396,21.862 5.697,22 6.001,22 6.209,22 6.42,21.935 6.6,21.8 6.637,21.772 10.387,19 15,19 c 0.404,0 0.769,-0.243 0.924,-0.617 0.155,-0.374 0.069,-0.804 -0.217,-1.09"
   id="path112"
   style="fill:#664500" /><path
   clip-path="url(#SVGID_2_)"
   d="m 30,13 c -0.184,0 -4.537,-0.05 -7.8,-4.4 -0.332,-0.442 -0.242,-1.069 0.2,-1.4 0.441,-0.333 1.067,-0.242 1.399,0.2 2.641,3.521 6.062,3.599 6.206,3.6 0.55,0.006 0.994,0.456 0.991,1.005 C 30.994,12.556 30.55,13 30,13"
   id="path108"
   style="fill:#664500" />
	<path
   clip-path="url(#SVGID_2_)"
   d="M 6,13 C 5.448,13 5,12.552 5,12 5,11.449 5.445,11.002 5.996,11 6.151,10.998 9.564,10.914 12.2,7.4 12.531,6.96 13.158,6.868 13.6,7.2 14.042,7.531 14.131,8.158 13.8,8.6 10.538,12.95 6.184,13 6,13"
   id="path106"
   style="fill:#664500" />
	<path
   clip-path="url(#SVGID_2_)"
   d="m 18,30 c -0.304,0 -0.591,-0.138 -0.781,-0.375 L 14.025,25.633 11.8,28.6 c -0.174,0.232 -0.44,0.377 -0.729,0.397 -0.29,0.021 -0.574,-0.085 -0.778,-0.29 l -1,-1 c -0.391,-0.391 -0.391,-1.023 0,-1.414 0.391,-0.391 1.023,-0.391 1.414,0 L 10.892,26.478 13.2,23.4 c 0.186,-0.248 0.475,-0.396 0.784,-0.4 0.296,-0.01 0.603,0.133 0.797,0.375 L 18,27.399 21.219,23.375 C 21.412,23.134 21.703,23 22.016,23 c 0.31,0.005 0.599,0.152 0.784,0.4 l 2.309,3.077 0.185,-0.185 c 0.391,-0.391 1.023,-0.391 1.414,0 0.391,0.391 0.391,1.023 0,1.414 l -1,1 c -0.205,0.205 -0.479,0.314 -0.778,0.29 -0.289,-0.021 -0.555,-0.165 -0.729,-0.397 l -2.226,-2.967 -3.193,3.992 C 18.591,29.862 18.304,30 18,30"
   id="path114"
   style="display:inline;fill:#664500" />
</g>
</svg>