<?xml version="1.0" encoding="UTF-8" standalone="no"?>
<svg
   xmlns:dc="http://purl.org/dc/elements/1.1/"
   xmlns:cc="http://creativecommons.org/ns#"
   xmlns:rdf="http://www.w3.org/1999/02/22-rdf-syntax-ns#"
   xmlns:svg="http://www.w3.org/2000/svg"
   xmlns="http://www.w3.org/2000/svg"
   xml:space="preserve"
   enable-background="new 0 0 864.57 864.57"
   viewBox="0 0 864.57 864.57"
   height="864.57px"
   width="864.57px"
   y="0px"
   x="0px"
   id="emoji"
   version="1.1"><metadata
   id="metadata13"><rdf:RDF><cc:Work
       rdf:about=""><dc:format>image/svg+xml</dc:format><dc:type
         rdf:resource="http://purl.org/dc/dcmitype/StillImage" /><dc:title></dc:title></cc:Work></rdf:RDF></metadata><defs
   id="defs11" />
<path
   d="M864.57,432.285c0,238.741-193.544,432.285-432.285,432.285S0,671.026,0,432.285  C0,193.543,193.544,0,432.285,0S864.57,193.543,864.57,432.285"
   fill="#FFCC4D"
   id="face_bg" />
<path
   d="M720.499,324.214c-7.325,0-14.529-3.314-19.236-9.606  c-63.402-84.56-145.561-86.433-149.043-86.457c-13.208-0.144-23.871-10.951-23.799-24.136c0.071-13.233,10.734-23.896,23.943-23.896  c4.419,0,108.96,1.201,187.323,105.67c7.974,10.615,5.813,25.672-4.803,33.622C730.562,322.652,725.519,324.214,720.499,324.214"
   fill="#664500"
   id="right_brow" />
<path
   d="M144.071,324.214c-4.996,0-10.063-1.562-14.386-4.804  c-10.615-7.949-12.752-23.007-4.803-33.622c78.34-104.469,182.905-105.67,187.324-105.67c13.257,0,24.016,10.759,24.016,24.016  c0,13.232-10.687,23.968-23.919,24.016c-3.723,0.048-85.713,2.065-148.995,86.457C158.577,320.899,151.372,324.214,144.071,324.214"
   fill="#664500"
   id="left_brow" />
<path
   d="M564.021,681.543c-0.288-1.057-27.522-105.165-131.727-105.165  c-104.253,0-131.487,104.108-131.727,105.165c-1.273,5.115,1.033,10.351,5.548,13.064c4.515,2.689,10.399,2.065,14.313-1.441  c0.24-0.168,24.352-20.726,111.866-20.726c86.192,0,110.881,19.934,111.817,20.726c2.281,2.162,5.26,3.291,8.262,3.291  c2.018,0,4.059-0.505,5.907-1.537C562.989,692.229,565.343,686.778,564.021,681.543"
   fill="#664500"
   id="mouth" />
<path
   d="M384.253,744.49c0,66.332-53.748,120.08-120.079,120.08s-120.079-53.748-120.079-120.08  c0-66.331,96.063-240.158,120.079-240.158S384.253,678.159,384.253,744.49"
   fill="#5DADEC"
   id="tear_drop" />
<path
   d="M29.785,264.597c5.764,5.74,34.511,23.007,40.274,40.227  c5.764,17.22,17.292,114.892,51.826,143.639c35.64,29.611,169.96,18.588,195.705,5.764c57.566-28.698,64.626-108.815,74.809-149.402  c5.74-22.983,40.274-22.983,40.274-22.983s34.56,0,40.299,22.959c10.183,40.611,17.291,120.728,74.81,149.403  c25.769,12.848,160.089,23.871,195.777-5.74c34.462-28.747,45.99-126.419,51.754-143.663c5.716-17.219,34.511-34.463,40.274-40.203  c5.788-5.74,5.788-28.723,0-34.487c-11.504-11.479-147.313-21.71-293.546-5.74c-29.179,3.194-40.274,11.504-109.368,11.504  c-69.045,0-80.188-8.31-109.344-11.479C177.146,208.4,41.288,218.63,29.785,230.11C24.045,235.874,24.045,258.857,29.785,264.597"
   fill="#292F33"
   id="sunglasses" />
</svg>