<?xml version="1.0" encoding="UTF-8" standalone="no"?>
<svg
   xmlns:dc="http://purl.org/dc/elements/1.1/"
   xmlns:cc="http://creativecommons.org/ns#"
   xmlns:rdf="http://www.w3.org/1999/02/22-rdf-syntax-ns#"
   xmlns:svg="http://www.w3.org/2000/svg"
   xmlns="http://www.w3.org/2000/svg"
   version="1.1"
   id="emoji"
   x="0px"
   y="0px"
   width="711.08301"
   height="799.61633"
   viewBox="0 0 711.08301 799.61633"
   enable-background="new 0 0 1280 800"
   xml:space="preserve"><metadata
   id="metadata16"><rdf:RDF><cc:Work
       rdf:about=""><dc:format>image/svg+xml</dc:format><dc:type
         rdf:resource="http://purl.org/dc/dcmitype/StillImage" /><dc:title></dc:title></cc:Work></rdf:RDF></metadata><defs
   id="defs14" />
<g
   transform="translate(-284.453)"
   id="face">
	<path
   style="fill:#ffcc4d"
   id="face_bg"
   d="M 995.536,355.542 C 995.536,551.9 836.353,711.084 639.995,711.084 443.658,711.084 284.453,551.9 284.453,355.542 284.454,159.203 443.658,0 639.995,0 836.354,0 995.536,159.203 995.536,355.542" />
	<g
   id="mouth"
   transform="translate(25,10)">
		<path
   style="fill:#664500"
   id="path26_1_"
   d="M 753.26,503.559 H 476.729 c -10.903,0 -19.751,-8.828 -19.751,-19.754 0,-10.921 8.848,-19.749 19.751,-19.749 H 753.26 c 10.926,0 19.753,8.828 19.753,19.749 0,10.925 -8.827,19.754 -19.753,19.754" />
	</g>
	<g
   id="left_brow"
   transform="translate(15,18)">
		<path
   style="fill:#664500"
   id="path30_1_"
   d="M 565.737,337.542 H 427.471 c -10.903,0 -19.751,-8.849 -19.751,-19.753 0,-10.903 8.848,-19.751 19.751,-19.751 h 138.266 c 10.904,0 19.753,8.848 19.753,19.751 10e-4,10.903 -8.849,19.753 -19.753,19.753" />
	</g>
	<g
   id="right_brow"
   transform="translate(28,18)">
		<path
   style="fill:#664500"
   id="path34_1_"
   d="M 809.519,337.542 H 671.252 c -10.923,0 -19.751,-8.849 -19.751,-19.753 0,-10.903 8.828,-19.751 19.751,-19.751 h 138.267 c 10.922,0 19.752,8.848 19.752,19.751 0,10.903 -8.831,19.753 -19.752,19.753" />
	</g>
</g>
<path
   style="fill:#f4900c"
   id="hand"
   d="m 339.467,780.707 c 0,0 28.111,-9.134 31.756,-30.045 3.844,-21.577 -13.867,-25.934 -13.867,-25.934 0,0 23.134,-4.622 26.045,-30.577 2.733,-24.444 -19.156,-30.289 -19.156,-30.289 0,0 21.556,-8.889 22.578,-34.2 0.845,-21.311 -22.111,-31.733 -22.111,-31.733 0,0 111.956,-27.111 123.445,-29.777 11.466,-2.689 29.355,-13.689 23.777,-37.667 -5.533,-24 -26.756,-24.845 -37.733,-22.289 -10.978,2.578 -149.866,34.822 -197.777,45.979 -5.111,1.178 -29.067,6.711 -31.979,7.422 -12,2.822 -17.444,-2.467 -9,-11.378 11.312,-11.911 18.512,-25.089 21.045,-46.955 2.645,-23.022 -5.155,-51.423 -9.622,-62.423 -8.312,-20.467 -22.334,-36.645 -38.533,-42.2 -25.289,-8.666 -43.245,7.134 -34.268,34.689 13.423,41.222 4.645,75 -18.511,95.399 -54.422,47.934 -79.755,82.111 -62.889,154.956 18.377,79.444 97.267,130.578 176.711,112.178 4.2,-0.934 70.089,-15.156 70.089,-15.156" />
</svg>