<?xml version="1.0" encoding="UTF-8" standalone="no"?>
<svg
   xmlns:dc="http://purl.org/dc/elements/1.1/"
   xmlns:cc="http://creativecommons.org/ns#"
   xmlns:rdf="http://www.w3.org/1999/02/22-rdf-syntax-ns#"
   xmlns:svg="http://www.w3.org/2000/svg"
   xmlns="http://www.w3.org/2000/svg"
   version="1.1"
   id="maemoji"
   x="0px"
   y="0px"
   width="857.09119"
   height="839.98456"
   viewBox="0 0 857.09118 839.98455"
   enable-background="new 0 0 864.57 864.57"
   xml:space="preserve"><metadata
   id="metadata38"><rdf:RDF><cc:Work
       rdf:about=""><dc:format>image/svg+xml</dc:format><dc:type
         rdf:resource="http://purl.org/dc/dcmitype/StillImage" /><dc:title></dc:title></cc:Work></rdf:RDF></metadata><defs
   id="defs36" />
<g
   transform="translate(-3.8574932,-24.08525)"
   id="face_bg">
	<g
   id="g20"
   transform="translate(33,19)">
		<path
   style="fill:#274756"
   id="path22"
   d="m 759.522,389.27 c 25.745,-146.113 30.308,-361.391 0,-380.987 -30.308,-19.573 -241.888,53.219 -286.124,150.411 -24.137,-6.413 -74.138,-9.583 -74.138,-9.583 0,0 -48.343,3.17 -72.456,9.583 C 282.568,61.501 69.332,-11.291 39.048,8.282 c -30.308,19.597 -25.793,234.875 0,380.987 0,0 -23.224,47.527 -23.224,214.941 l 384.254,-95.271 v -20.102 l 384.253,116.164 c 0,-168.204 -24.809,-215.731 -24.809,-215.731" />
	</g>
	<g
   id="g24"
   transform="translate(23.9463,16.7178)">
		<path
   style="fill:#366472"
   id="path26"
   d="m 551.145,446.36 c -50.073,0 -102.62,11.455 -142.006,30.765 -39.362,-19.31 -91.909,-30.765 -141.981,-30.765 -238.525,0 -242.272,122.48 -242.272,160.041 0,37.441 47.239,240.951 383.46,240.951 336.222,0 385.046,-202.718 385.046,-240.158 0,-37.56 -3.746,-160.834 -242.247,-160.834" />
	</g>
</g>
<g
   transform="translate(-3.8574932,-24.08525)"
   id="ear_inner">
	<g
   id="g28"
   transform="translate(23.4063,27.9463)">
		<path
   style="fill:#305868"
   id="path30"
   d="M 538.716,165.47 C 590.83,108.24 699.165,65.276 721.404,70.728 c 18.06,4.347 15.25,153.365 0.769,238.646 C 660.62,207.306 538.716,165.47 538.716,165.47" />
	</g>
	<g
   id="g32"
   transform="translate(12.6602,27.9463)">
		<path
   style="fill:#305868"
   id="path34"
   d="M 291.385,165.47 C 239.319,108.24 130.959,65.276 108.721,70.728 90.637,75.075 93.447,224.093 107.977,309.374 169.529,207.306 291.385,165.47 291.385,165.47" />
	</g>
</g>
<g
   transform="translate(-3.8574932,-24.08525)"
   id="mouth">
	<path
   style="fill:#172b30"
   id="path58"
   d="m 334.558,746.46 c -15.178,0 -32.109,-1.633 -51.082,-5.451 -12.993,-2.594 -21.446,-15.227 -18.829,-28.243 2.57,-12.992 15.106,-21.566 28.267,-18.853 96.111,19.165 116.429,-30.5 117.245,-32.638 4.707,-12.199 18.42,-18.66 30.692,-14.193 12.272,4.468 18.853,17.725 14.649,30.068 -1.104,3.266 -24.831,69.31 -120.942,69.31" />
	<path
   style="fill:#172b30"
   id="path54"
   d="m 530.037,746.46 c -96.111,0 -119.047,-66.308 -120.104,-69.55 -4.131,-12.608 2.738,-26.178 15.37,-30.284 12.561,-4.131 25.889,2.618 30.164,14.986 1.057,2.785 21.038,51.321 116.188,32.301 13.137,-2.689 25.697,5.86 28.267,18.853 2.618,13.017 -5.836,25.649 -18.828,28.243 -18.948,3.818 -35.904,5.451 -51.057,5.451" />
	<path
   style="fill:#172b30"
   id="path50"
   d="m 432.754,693.457 c -13.281,0 -24.017,-10.735 -24.017,-24.016 v -69.046 c 0,-13.28 10.735,-24.016 24.017,-24.016 13.28,0 24.016,10.735 24.016,24.016 v 69.046 c 0,13.281 -10.736,24.016 -24.016,24.016" />
</g>
<g
   transform="translate(-3.8574932,-24.08525)"
   id="nose_1_">
	<path
   style="fill:#1d353d"
   id="path38"
   d="m 529.309,480.316 c 0,-112.706 -43.444,-312.206 -97.023,-312.206 -53.579,0 -97.024,199.5 -97.024,312.206 0,112.755 43.445,48.032 97.024,48.032 53.579,0 97.023,64.723 97.023,-48.032" />
	<path
   style="fill:#0a1316"
   id="nose"
   d="m 528.816,518.545 c 0,42.22 -77.234,95.559 -96.543,95.559 -19.261,0 -96.52,-53.339 -96.52,-95.559 0,-42.268 53.892,-38.233 96.52,-38.233 42.652,0 96.543,-4.035 96.543,38.233" />
</g>
<g
   transform="translate(-3.8574932,-24.08525)"
   id="eyes">
	<g
   id="g40"
   transform="translate(15.0195,19.001)">
		<path
   style="fill:#9e1600"
   id="path42"
   d="m 345.687,389.244 c 0,26.537 -21.71,48.031 -48.512,48.031 -26.777,0 -48.488,-21.494 -48.488,-48.031 0,-26.514 21.71,-47.983 48.488,-47.983 26.801,0 48.512,21.469 48.512,47.983" />
	</g>
	<g
   id="g44"
   transform="translate(25.0391,19)">
		<path
   style="fill:#9e1600"
   id="path46"
   d="m 576.296,389.27 c 0,26.537 -21.71,48.031 -48.512,48.031 -26.778,0 -48.488,-21.494 -48.488,-48.031 0,-26.514 21.71,-47.984 48.488,-47.984 26.802,-10e-4 48.512,21.47 48.512,47.984" />
	</g>
</g>
<g
   transform="translate(-3.8574932,-24.08525)"
   id="whiskers">
	<g
   id="g64"
   transform="translate(34.0215,4.0654)">
		<path
   style="fill:#172b30"
   id="path66"
   d="m 783.033,762.87 c -6.652,0 -13.28,-2.762 -18.036,-8.141 -0.72,-0.841 -76.394,-84.104 -250.005,-111.05 -13.112,-2.041 -22.094,-14.313 -20.053,-27.401 2.041,-13.113 14.337,-21.999 27.426,-20.054 8.79,1.345 17.363,2.858 25.745,4.467 173.923,33.719 249.74,118.639 253.031,122.385 8.693,9.99 7.661,25.169 -2.33,33.887 -4.539,3.962 -10.182,5.907 -15.778,5.907" />
	</g>
	<g
   id="g68"
   transform="translate(23.0137,9.0166)">
		<path
   style="fill:#172b30"
   id="path70"
   d="m 529.68,639.012 c -9.75,0 -18.948,-6.004 -22.551,-15.682 -4.587,-12.465 1.801,-26.273 14.217,-30.86 131.535,-48.608 292.057,-4.539 299.021,-2.618 12.776,3.578 20.222,16.787 16.691,29.563 -3.531,12.776 -16.739,20.222 -29.54,16.739 -1.537,-0.433 -152.692,-41.764 -269.506,1.393 -2.761,0.985 -5.571,1.465 -8.332,1.465" />
	</g>
	<g
   id="g72"
   transform="translate(1.9883,4.0654)">
		<path
   style="fill:#172b30"
   id="path74"
   d="m 45.763,762.87 c 6.652,0 13.281,-2.762 18.036,-8.141 0.721,-0.841 76.395,-84.104 250.005,-111.05 13.113,-2.041 22.095,-14.313 20.053,-27.401 -2.042,-13.113 -14.337,-21.999 -27.402,-20.054 -8.814,1.345 -17.388,2.858 -25.769,4.467 C 106.763,634.41 30.945,719.33 27.655,723.076 c -8.694,9.99 -7.661,25.169 2.33,33.887 4.538,3.962 10.182,5.907 15.778,5.907" />
	</g>
	<g
   id="g76"
   transform="translate(12.9961,9.0166)">
		<path
   style="fill:#172b30"
   id="path78"
   d="m 299.116,639.012 c 9.75,0 18.949,-6.004 22.551,-15.682 4.587,-12.465 -1.801,-26.273 -14.217,-30.86 -131.535,-48.608 -292.057,-4.539 -299.021,-2.618 -12.776,3.578 -20.221,16.787 -16.691,29.563 3.53,12.776 16.739,20.222 29.54,16.739 1.537,-0.433 152.692,-41.764 269.505,1.393 2.761,0.985 5.571,1.465 8.333,1.465" />
	</g>
</g>
</svg>