<?xml version="1.0" encoding="UTF-8" standalone="no"?>
<svg
   xmlns:dc="http://purl.org/dc/elements/1.1/"
   xmlns:cc="http://creativecommons.org/ns#"
   xmlns:rdf="http://www.w3.org/1999/02/22-rdf-syntax-ns#"
   xmlns:svg="http://www.w3.org/2000/svg"
   xmlns="http://www.w3.org/2000/svg"
   version="1.1"
   id="emoji"
   x="0px"
   y="0px"
   width="784.46802"
   height="788.82703"
   viewBox="0 0 784.46802 788.82703"
   enable-background="new 0 0 1280 800"
   xml:space="preserve"><metadata
   id="metadata14"><rdf:RDF><cc:Work
       rdf:about=""><dc:format>image/svg+xml</dc:format><dc:type
         rdf:resource="http://purl.org/dc/dcmitype/StillImage" /><dc:title></dc:title></cc:Work></rdf:RDF></metadata><defs
   id="defs12" />
<path
   style="fill:#ffcc4d"
   id="hand_on_left"
   d="m 183.26,733.827 c 0,0 -22.161,-1.52 -27.911,-16.3 -5.875,-15.094 5.659,-21.007 5.659,-21.007 0,0 -17.411,0.538 -23.853,-17.658 -6.077,-17.147 8.716,-25.016 8.716,-25.016 0,0 -17.021,-2.793 -21.988,-20.852 -4.175,-15.2 10.617,-26.526 10.617,-26.526 H 23.442004 c -8.724,0 -23.43399998,-4.931 -23.4419999812998,-23.135 C -0.00899598,565.14 15.101004,560.981 23.442004,560.981 H 173.544 209.933 c 9.097,0 9.097,-9.096 0,-9.096 H 185.68 c -34.497,0 -55.883,-18.54 -61.788,-25.027 -5.922,-6.486 -8.915,-15.164 -6.687,-25.654 3.776,-17.793 17.466,-13.917 29.092,-8.869 28.001,12.164 67.892,20.506 86.769,23.044 53.281,7.195 94.382,52.845 94.427,108.109 0.036,60.276 -48.188,110.292 -108.464,110.338 H 183.26 Z" />
<path
   style="fill:#ffcc4d"
   id="hand_on_right"
   d="m 640.232,788.827 c 0,0 -22.161,-1.52 -27.911,-16.3 -5.875,-15.094 5.659,-21.007 5.659,-21.007 0,0 -17.411,0.538 -23.853,-17.658 -6.076,-17.147 8.716,-25.016 8.716,-25.016 0,0 -17.021,-2.793 -21.988,-20.852 -4.175,-15.2 10.616,-26.526 10.616,-26.526 H 480.415 c -8.725,0 -23.435,-4.931 -23.443,-23.135 -0.009,-18.193 15.102,-22.352 23.443,-22.352 h 150.102 36.389 c 9.098,0 9.098,-9.096 0,-9.096 h -24.253 c -34.497,0 -55.884,-18.54 -61.788,-25.027 -5.922,-6.486 -8.914,-15.164 -6.686,-25.654 3.775,-17.793 17.466,-13.917 29.092,-8.869 28.002,12.164 67.893,20.506 86.77,23.044 53.28,7.195 94.382,52.845 94.427,108.109 0.036,60.276 -48.188,110.292 -108.464,110.338 h -35.772 z" />
<path
   style="fill:#ffcc4d"
   id="face_bg"
   d="m 723.073,266.236 c 0,147.036 -119.2,266.238 -266.237,266.238 C 309.799,532.474 190.6,413.272 190.6,266.236 190.6,119.199 309.799,0 456.836,0 603.873,0 723.073,119.2 723.073,266.236" />
<g
   id="mouth"
   transform="translate(-247.78289,-4.4867789)">
	<path
   style="fill:#664500"
   id="path54"
   d="m 759.15,393.749 c -19.134,4.445 -47.354,8.206 -65.991,-35.979 -2.183,-7.781 1.447,-16.154 8.122,-18.689 6.637,-2.549 13.679,1.616 15.938,9.25 0.559,1.718 10.198,17.248 19.172,20.849 8.971,3.602 30.514,-3.401 23.34,-16.591 -13.545,-24.904 5.863,-31.139 20.435,-15.019 17.42,19.277 -0.995,51.53 -21.016,56.179 z" />
	<path
   style="fill:#664500"
   id="path54-6"
   d="m 650.088,393.749 c 19.136,4.445 47.355,8.206 65.992,-35.979 2.182,-7.781 -1.446,-16.154 -8.122,-18.689 -6.637,-2.549 -13.68,1.616 -15.938,9.25 -0.558,1.718 -10.198,17.248 -19.171,20.849 -8.973,3.602 -30.514,-3.401 -23.342,-16.591 13.546,-24.904 -5.864,-31.139 -20.434,-15.019 -17.42,19.277 0.996,51.53 21.015,56.179 z" />
</g>
<path
   style="fill:#292f33"
   id="sunglasses"
   d="m 208.944,162.96 c 3.55,3.535 21.253,14.169 24.804,24.775 3.55,10.605 10.649,70.759 31.92,88.464 21.949,18.237 104.674,11.448 120.528,3.55 35.457,-17.675 39.805,-67.017 46.076,-92.014 3.535,-14.155 24.804,-14.155 24.804,-14.155 0,0 21.284,0 24.819,14.14 6.271,25.012 10.649,74.354 46.073,92.014 15.87,7.913 98.597,14.702 120.575,-3.535 21.224,-17.705 28.324,-77.859 31.875,-88.479 3.521,-10.605 21.256,-21.225 24.805,-24.76 3.563,-3.535 3.563,-17.689 0,-21.24 -7.084,-7.07 -90.729,-13.371 -180.79,-3.534 -17.972,1.967 -24.806,7.084 -67.357,7.084 -42.523,0 -49.389,-5.118 -67.344,-7.07 -90.032,-9.851 -173.704,-3.55 -180.788,3.52 -3.534,3.55 -3.534,17.705 0,21.24" />
</svg>