<?xml version="1.0" encoding="UTF-8" standalone="no"?>
<svg
   xmlns:dc="http://purl.org/dc/elements/1.1/"
   xmlns:cc="http://creativecommons.org/ns#"
   xmlns:rdf="http://www.w3.org/1999/02/22-rdf-syntax-ns#"
   xmlns:svg="http://www.w3.org/2000/svg"
   xmlns="http://www.w3.org/2000/svg"
   version="1.1"
   id="emoji"
   x="0px"
   y="0px"
   width="544"
   height="611.7063"
   viewBox="0 0 544 611.7063"
   enable-background="new 0 0 612 792"
   xml:space="preserve"><metadata
   id="metadata17"><rdf:RDF><cc:Work
       rdf:about=""><dc:format>image/svg+xml</dc:format><dc:type
         rdf:resource="http://purl.org/dc/dcmitype/StillImage" /><dc:title></dc:title></cc:Work></rdf:RDF></metadata><defs
   id="defs15" />
<path
   style="fill:#ffcc4d"
   id="face_bg"
   d="M 0,272 C 0,422.229 121.788,544 272,544 422.229,544 544,422.229 544,272 544,121.788 422.229,0 272,0 121.788,0 0,121.788 0,272" />
<g
   id="mouth"
   transform="translate(-33.78189,-91.298779)">
	<path
   style="fill:#664500"
   id="path54"
   d="m 368.33,464.564 c -21.948,5.098 -54.316,9.411 -75.692,-41.268 -2.503,-8.926 1.659,-18.53 9.315,-21.438 7.612,-2.924 15.69,1.854 18.281,10.608 0.641,1.972 11.698,19.784 21.989,23.914 10.292,4.13 35,-3.9 26.771,-19.029 -15.535,-28.565 6.727,-35.718 23.438,-17.227 19.983,22.112 -1.14,59.107 -24.102,64.44 z" />
	<path
   style="fill:#664500"
   id="path54-6"
   d="m 243.235,464.564 c 21.948,5.098 54.315,9.411 75.692,-41.268 2.503,-8.926 -1.659,-18.53 -9.315,-21.438 -7.612,-2.924 -15.69,1.854 -18.281,10.608 -0.641,1.972 -11.698,19.784 -21.99,23.914 -10.292,4.13 -34.999,-3.9 -26.771,-19.029 15.535,-28.565 -6.727,-35.718 -23.438,-17.227 -19.983,22.112 1.14,59.107 24.103,64.44 z" />
</g>
<g
   transform="translate(-34,-90)"
   id="eyes">
	<path
   style="fill:#664500"
   id="path26"
   d="m 261.907,268.5 c 0,23.477 -15.232,42.5 -34,42.5 -18.768,0 -34,-19.023 -34,-42.5 0,-23.46 15.232,-42.5 34,-42.5 18.768,0 34,19.04 34,42.5" />
	<path
   style="fill:#664500"
   id="path30"
   d="m 442,285.5 c 0,23.477 -15.215,42.5 -34,42.5 -18.768,0 -34,-19.023 -34,-42.5 0,-23.46 15.232,-42.5 34,-42.5 18.785,0 34,19.04 34,42.5" />
	<path
   style="fill:#664500"
   id="left_brow"
   d="m 164.405,197.661 c -2.788,-1.479 -5.151,-3.791 -6.647,-6.766 -3.672,-7.293 -0.68,-15.759 6.681,-18.921 72.522,-31.11 130.883,-0.731 133.331,0.578 7.361,3.927 10.336,12.716 6.647,19.618 -3.672,6.885 -12.58,9.282 -19.941,5.406 -2.091,-1.088 -48.144,-24.344 -106.726,0.799 -4.369,1.853 -9.299,1.445 -13.345,-0.714" />
	<path
   style="fill:#664500"
   id="right_brow"
   d="m 347.322,261.411 c -2.652,-1.666 -4.862,-4.131 -6.154,-7.208 -3.179,-7.514 0.391,-15.776 7.938,-18.428 74.478,-26.112 130.646,8.16 133.009,9.639 7.055,4.42 9.418,13.379 5.287,20.026 -4.114,6.63 -13.192,8.415 -20.247,4.046 -2.04,-1.241 -46.376,-27.557 -106.539,-6.46 -4.488,1.564 -9.385,0.816 -13.294,-1.615" />
</g>
<path
   style="fill:#f4900c"
   id="hand"
   d="m 259.699,597.24 c 0,0 21.505,-6.986 24.293,-22.983 2.94,-16.507 -10.608,-19.839 -10.608,-19.839 0,0 17.697,-3.536 19.924,-23.393 2.091,-18.7 -14.654,-23.171 -14.654,-23.171 0,0 16.49,-6.8 17.272,-26.163 0.646,-16.303 -16.915,-24.275 -16.915,-24.275 0,0 85.646,-20.74 94.435,-22.78 8.772,-2.058 22.457,-10.472 18.19,-28.815 -4.233,-18.359 -20.468,-19.006 -28.866,-17.051 -8.397,1.972 -114.648,26.639 -151.3,35.173 -3.91,0.901 -22.236,5.134 -24.463,5.679 -9.18,2.158 -13.345,-1.888 -6.885,-8.704 8.653,-9.112 14.161,-19.193 16.099,-35.921 2.023,-17.612 -3.944,-39.339 -7.361,-47.754 -6.358,-15.656 -17.085,-28.032 -29.478,-32.283 -19.346,-6.63 -33.082,5.458 -26.214,26.538 10.268,31.534 3.553,57.375 -14.161,72.98 -41.633,36.669 -61.013,62.815 -48.11,118.541 14.059,60.775 74.409,99.892 135.184,85.816 3.213,-0.714 53.618,-11.595 53.618,-11.595" />
</svg>