<?xml version="1.0" encoding="UTF-8" standalone="no"?>
<svg
   xmlns:dc="http://purl.org/dc/elements/1.1/"
   xmlns:cc="http://creativecommons.org/ns#"
   xmlns:rdf="http://www.w3.org/1999/02/22-rdf-syntax-ns#"
   xmlns:svg="http://www.w3.org/2000/svg"
   xmlns="http://www.w3.org/2000/svg"
   xml:space="preserve"
   enable-background="new 0 0 864.57 864.57"
   viewBox="0 0 864.57 864.57"
   height="864.57px"
   width="864.57px"
   y="0px"
   x="0px"
   id="emoji"
   version="1.1"><metadata
   id="metadata29"><rdf:RDF><cc:Work
       rdf:about=""><dc:format>image/svg+xml</dc:format><dc:type
         rdf:resource="http://purl.org/dc/dcmitype/StillImage" /><dc:title></dc:title></cc:Work></rdf:RDF></metadata><defs
   id="defs27" />
<g
   id="face">
	<g
   transform="translate(36,16)"
   id="g20">
		<path
   d="M828.57,464.316c0,240.158-264.175,384.254-432.285,384.254    C228.174,848.57-36,703.058-36,464.316S60.063-16,396.285-16S828.57,224.158,828.57,464.316"
   fill="#FFCC4D"
   id="path22" />
	</g>
	<g
   transform="translate(35,35)"
   id="g24">
		<path
   d="M805.555-10.984c24.016,24.016,0,264.174,0,264.174L613.428,13.032    C613.428,13.032,781.538-35,805.555-10.984"
   fill="#FFCC4D"
   id="path26" />
	</g>
	<g
   transform="translate(1,35)"
   id="g28">
		<path
   d="M23.016-10.984c-24.016,24.016,0,264.174,0,264.174L215.143,13.032    C215.143,13.032,47.032-35,23.016-10.984"
   fill="#FFCC4D"
   id="path30" />
	</g>
	<g
   transform="translate(31.4043,12.2949)"
   id="g32">
		<path
   d="M722.796,557.003c-2.953-4.059-8.117-5.884-13.017-4.467    c-1.656,0.479-168.11,47.575-308.915,47.575c-140.685,0-307.235-47.096-308.892-47.575c-5.02-1.489-10.351,0.528-13.257,4.827    c-2.882,4.299-2.714,9.99,0.48,14.097c7.012,9.03,173.418,220.777,321.668,220.777c172.554,0,316.192-212.443,322.22-221.497    C725.87,566.537,725.75,561.085,722.796,557.003"
   fill="#292F33"
   id="path34" />
	</g>
	<g
   transform="translate(7.9995,11)"
   id="g36">
		<path
   d="M184.115,589.396c0,0,120.079,48.032,240.159,48.032c120.079,0,240.158-48.032,240.158-48.032    s0,72.048-24.016,72.048c-24.017,0-48.032-24.016-48.032-24.016s-96.063,48.031-168.11,48.031    c-72.048,0-168.111-48.031-168.111-48.031s-24.016,24.016-48.031,24.016C184.115,661.443,184.115,589.396,184.115,589.396"
   fill="#F5F8FA"
   id="path38" />
	</g>
	<g
   transform="translate(17.9995,16.5)"
   id="g40">
		<path
   d="M414.274,451.809c72.071,0,72.071,12.008,72.071,36.023c0,24.017-36.023,72.048-72.071,72.048    c-36.024,0-72.048-48.031-72.048-72.048C342.226,463.816,342.202,451.809,414.274,451.809"
   fill="#67757F"
   id="path42" />
	</g>
	<g
   transform="translate(26,15.5)"
   id="g44">
		<path
   d="M598.412,476.824c-5.02,0-9.703-3.193-11.408-8.213c-2.065-6.292,1.321-13.089,7.613-15.202    l216.143-72.023c6.316-2.113,13.089,1.297,15.202,7.589c2.089,6.292-1.321,13.089-7.613,15.178l-216.143,72.071    C600.934,476.633,599.685,476.824,598.412,476.824"
   fill="#9AAAB4"
   id="path46" />
	</g>
	<g
   transform="translate(24.999,13.5)"
   id="g48">
		<path
   d="M575.373,526.856c-5.596,0-10.591-3.938-11.744-9.654c-1.32-6.509,2.906-12.825,9.414-14.122    l240.159-48.031c6.244-1.297,12.8,2.882,14.121,9.414c1.32,6.509-2.906,12.824-9.414,14.121l-240.158,48.032    C576.958,526.784,576.165,526.856,575.373,526.856"
   fill="#9AAAB4"
   id="path50" />
	</g>
	<g
   transform="translate(10,15.5)"
   id="g52">
		<path
   d="M230.159,476.824c-1.249,0-2.522-0.191-3.794-0.601L10.222,404.152    c-6.292-2.089-9.703-8.886-7.589-15.178c2.089-6.292,8.838-9.702,15.178-7.589l216.143,72.023    c6.292,2.113,9.678,8.91,7.589,15.202C239.861,473.631,235.202,476.824,230.159,476.824"
   fill="#9AAAB4"
   id="path54" />
	</g>
	<g
   transform="translate(11.0005,13.5)"
   id="g56">
		<path
   d="M253.186,526.856c-0.769,0-1.561-0.072-2.378-0.24L10.65,478.584    c-6.484-1.297-10.711-7.612-9.414-14.121c1.297-6.508,7.517-10.783,14.146-9.414L255.54,503.08    c6.484,1.297,10.711,7.613,9.414,14.122C263.801,522.918,258.782,526.856,253.186,526.856"
   fill="#9AAAB4"
   id="path58" />
	</g>
</g>
<path
   d="M17.599,223.676c5.932,5.908,35.519,23.679,41.451,41.401  c5.932,17.723,17.796,118.247,53.34,147.833c36.681,30.477,174.923,19.131,201.42,5.933  c59.247-29.537,66.514-111.994,76.994-153.766c5.908-23.654,41.451-23.654,41.451-23.654s35.569,0,41.476,23.629  c10.48,41.797,17.796,124.254,76.994,153.766c26.521,13.223,164.765,24.568,201.495-5.908  c35.469-29.586,47.333-130.111,53.266-147.858c5.883-17.722,35.519-35.469,41.45-41.377c5.957-5.907,5.957-29.562,0-35.494  c-11.84-11.815-151.615-22.344-302.118-5.908c-30.031,3.288-41.451,11.84-112.563,11.84c-71.061,0-82.53-8.552-112.537-11.814  c-150.453-16.462-290.279-5.933-302.118,5.882C11.691,194.115,11.691,217.769,17.599,223.676"
   fill="#292F33"
   id="sunglasses" />
</svg>